<svg width="192" height="29" viewBox="0 0 192 29" fill="none" xmlns="http://www.w3.org/2000/svg">
<path d="M126.847 3.7728V23.5754H127.765V3.7728H126.847Z" fill="white"/>
<path d="M132.686 9.05473V23.5754H133.599V9.05473H132.686ZM132.62 4.95526C132.34 5.22211 132.34 5.70062 132.62 5.97207C132.894 6.23893 133.386 6.23893 133.665 5.97207C133.812 5.82944 133.873 5.65921 133.873 5.45676C133.925 4.86324 133.041 4.49056 132.615 4.95526H132.62Z" fill="white"/>
<path d="M152.151 9.05473L152.137 13.3521C151.607 12.0362 150.717 10.9641 149.459 10.1406C148.196 9.31239 146.776 8.9029 145.201 8.9029C143.175 8.9029 141.226 9.72648 139.882 11.0562C138.543 12.3812 137.682 14.2953 137.682 16.3151C137.682 17.654 138.013 18.8962 138.69 20.0281C139.367 21.1783 140.27 22.0663 141.425 22.7243C142.579 23.3822 143.838 23.7181 145.201 23.7181C146.804 23.7181 148.224 23.3178 149.487 22.5034C150.746 21.6936 151.621 20.6216 152.137 19.2643V22.5126C152.137 24.5646 151.394 26.0692 150.135 26.9342C148.863 27.7991 147.311 28.1856 145.347 28.1856C143.104 28.1856 141.117 27.2286 139.788 25.5953L139.234 26.1336C140.677 27.928 142.92 29 145.399 29C147.576 29 149.364 28.5215 150.798 27.5277C152.217 26.5339 153.041 24.7947 153.041 22.5402V9.05013H152.151V9.05473ZM151.224 19.6324C150.613 20.6492 149.79 21.4636 148.759 22.0433C147.713 22.6276 146.582 22.9221 145.366 22.9221C143.549 22.9221 141.799 22.1767 140.592 20.9897C139.385 19.8164 138.619 18.1141 138.619 16.3105C138.619 14.5069 139.385 12.8275 140.592 11.6405C141.803 10.4672 143.554 9.72188 145.366 9.72188C146.573 9.72188 147.699 10.0163 148.744 10.5961C149.776 11.1758 150.604 11.9764 151.224 12.9932C151.834 14.01 152.137 15.1188 152.137 16.3197C152.137 17.5205 151.834 18.6156 151.224 19.6324Z" fill="white"/>
<path d="M165.688 8.9029C164.07 8.9029 162.665 9.30319 161.473 10.1038C160.266 10.9043 159.405 11.9856 158.889 13.3428V3.7774H157.971V23.58H158.889V16.3197C158.889 14.4517 159.514 12.8735 160.772 11.6129C162.036 10.3476 163.597 9.72188 165.494 9.72188C169.421 9.72188 171.092 12.0408 171.092 16.3243V23.5846H172.024V16.3243C172.024 11.3828 169.914 8.9075 165.698 8.9075L165.688 8.9029Z" fill="white"/>
<path d="M183.384 9.8185V9.05934H178.861V5.66841H177.947V9.05934H175.402V9.8185H177.947V20.0327C177.947 22.4712 178.752 23.7089 180.985 23.7089C181.662 23.7089 182.471 23.6168 183.384 23.4512V22.6506C182.627 22.8439 181.86 22.9221 181.08 22.8945C179.447 22.8853 178.865 21.9789 178.865 20.0327V9.8185H183.389H183.384Z" fill="white"/>
<path d="M188.537 6.73584C186.625 6.73584 185.073 5.22672 185.073 3.36792C185.073 1.50912 186.625 0 188.537 0C190.448 0 192 1.50912 192 3.36792C192 5.22672 190.448 6.73584 188.537 6.73584ZM188.537 0.506107C186.914 0.506107 185.594 1.78978 185.594 3.36792C185.594 4.94606 186.914 6.22973 188.537 6.22973C190.16 6.22973 191.48 4.94606 191.48 3.36792C191.48 1.78978 190.16 0.506107 188.537 0.506107Z" fill="white"/>
<path d="M189.407 5.26813L188.475 3.71299H187.86V5.26813H187.349V1.46311H188.612C188.906 1.46311 189.157 1.51372 189.36 1.61034C189.563 1.70696 189.715 1.84039 189.819 2.01063C189.918 2.17626 189.97 2.3695 189.97 2.58575C189.97 2.84801 189.895 3.07806 189.739 3.2805C189.582 3.47834 189.351 3.61177 189.038 3.68079L190.022 5.27273H189.412L189.407 5.26813ZM187.86 3.31271H188.612C188.887 3.31271 189.095 3.24829 189.237 3.11487C189.374 2.98144 189.445 2.8066 189.445 2.58115C189.445 2.3557 189.379 2.18086 189.242 2.05664C189.105 1.93241 188.896 1.8726 188.617 1.8726H187.865V3.31271H187.86Z" fill="white"/>
<path d="M46.137 10.8491C45.29 9.52403 43.8185 8.83849 41.7461 8.83849C38.8457 8.83849 36.8159 9.94732 35.8459 11.9718C35.051 9.88291 33.3903 8.83849 30.8731 8.83849C28.1809 8.83849 26.5107 9.61145 25.6069 11.3506L25.4603 9.05473H22.2901V23.5754H25.6069V16.3151C25.6069 14.898 25.9665 13.7477 26.6952 12.8828C27.4096 12.0178 28.4175 11.5945 29.7044 11.5945C32.1317 11.5945 33.1537 13.2324 33.1537 16.3151V23.5754H36.4847V16.3151C36.4847 14.898 36.8443 13.7477 37.5587 12.8828C38.2732 12.0178 39.2857 11.5945 40.5727 11.5945C43 11.5945 44.022 13.2324 44.022 16.3151V23.5754H47.3388V16.3151C47.3388 13.9272 46.9792 12.188 46.1417 10.8445L46.137 10.8491ZM59.9199 8.83849C57.3175 8.83849 55.2357 9.79549 54.3225 11.3506V3.77281H51.0057V23.5754H54.1711L54.3177 21.2795C55.1931 22.9451 57.062 23.7825 59.9151 23.7825C63.8139 23.8745 67.126 20.571 67.0502 16.3151C67.1307 12.073 63.8139 8.76027 59.9151 8.83389L59.9199 8.83849ZM62.3613 19.683C61.4434 20.5756 60.3457 21.0219 59.0303 21.0219C57.715 21.0219 56.6173 20.571 55.6993 19.6692C54.7814 18.7812 54.3225 17.6586 54.3225 16.3059C54.3225 14.9532 54.7862 13.8444 55.6993 12.9426C56.6173 12.05 57.715 11.5991 59.0303 11.5991C60.3457 11.5991 61.4434 12.05 62.3613 12.9426C63.2745 13.8306 63.724 14.9532 63.724 16.3059C63.724 17.6586 63.2745 18.795 62.3613 19.683ZM70.0216 9.05933V23.58H73.3479V9.05933H70.0216ZM73.0971 3.65778C72.7139 3.2805 72.236 3.09186 71.6919 3.09186C71.1477 3.09186 70.6604 3.2851 70.2771 3.65778C69.8797 4.04426 69.6762 4.49516 69.6762 5.02427C69.6762 5.55338 69.875 6.02729 70.2771 6.40457C70.6604 6.79105 71.1383 6.98429 71.6919 6.98429C72.2454 6.98429 72.7139 6.79105 73.0971 6.40457C73.4851 6.01808 73.6838 5.55338 73.6838 5.02427C73.6838 4.49516 73.4851 4.04426 73.0971 3.65778ZM90.1589 11.1758C88.7442 9.72188 86.6718 8.84309 84.3392 8.84309C82.1769 8.84309 80.1755 9.58845 78.7134 10.8675C77.2561 12.1558 76.3287 14.1066 76.3287 16.3243C76.3287 18.542 77.2561 20.4882 78.7134 21.7673C80.1755 23.0417 82.1769 23.7917 84.3392 23.7917C85.8769 23.7917 87.2964 23.4282 88.5834 22.7105C89.8703 21.9881 90.8497 21.0081 91.498 19.7566L88.6638 18.4269C87.8689 20.1707 86.2886 21.2105 84.3392 21.2105C83.2131 21.2105 82.2147 20.8609 81.3678 20.1569C80.5209 19.4622 79.9767 18.5466 79.7496 17.4101H92.2266C92.3733 14.8704 91.5737 12.6389 90.1542 11.1804L90.1589 11.1758ZM79.7402 15.2385C79.9625 14.0882 80.483 13.1726 81.3205 12.4779C82.1532 11.7831 83.1658 11.4334 84.3439 11.4334C85.5221 11.4334 86.5441 11.7831 87.3816 12.4641C88.219 13.1588 88.7348 14.0882 88.9619 15.2385H79.7449H79.7402ZM108.233 10.8537C107.344 9.52864 105.844 8.84309 103.762 8.84309C101.245 8.84309 99.4942 9.68047 98.4959 11.3552L98.3492 9.05933H95.1791V23.58H98.4959V16.3197C98.4959 14.8888 98.8555 13.7523 99.5841 12.8874C100.313 12.0224 101.335 11.5991 102.674 11.5991C105.153 11.5991 106.189 13.2232 106.189 16.3197V23.58H109.506V16.3197C109.506 13.9456 109.123 12.1926 108.233 10.8491V10.8537ZM121.33 11.5899V9.05933H117.483V5.77423H114.181V9.05933H112.056V11.5899H114.181V18.9238C114.181 20.5618 114.526 21.7903 115.203 22.5724C115.879 23.373 117.006 23.7733 118.61 23.7733C119.442 23.7733 120.346 23.6951 121.33 23.5432V20.8747C120.441 21.0403 119.674 21.0679 119.021 20.9437C117.947 20.8287 117.483 20.1431 117.483 18.818V11.5991H121.33V11.5899ZM12.8129 2.99984H6.87962L0 23.58H3.98393L5.25198 19.7934L6.30237 16.7338H6.28345L9.83681 6.0963L13.4138 16.7338H13.4044L14.4406 19.7934L15.0651 21.6568L15.0793 21.7074L15.7086 23.5846H19.6925L12.7987 3.00444L12.8129 2.99984Z" fill="white"/>
</svg>
